<mxfile host="65bd71144e">
    <diagram id="F2d28KSoVFQRdquB1sOV" name="erd">
        <mxGraphModel dx="1473" dy="2570" grid="1" gridSize="10" guides="1" tooltips="1" connect="1" arrows="1" fold="1" page="1" pageScale="1" pageWidth="850" pageHeight="1100" math="0" shadow="0">
            <root>
                <mxCell id="0"/>
                <mxCell id="1" parent="0"/>
                <mxCell id="RtNlZTSlQdD1a2SPkFbh-1" value="&lt;font face=&quot;Times New Roman&quot;&gt;tb_pasien&lt;/font&gt;" style="rounded=0;whiteSpace=wrap;html=1;" parent="1" vertex="1">
                    <mxGeometry x="-286.5" y="-629" width="120" height="40" as="geometry"/>
                </mxCell>
                <mxCell id="RtNlZTSlQdD1a2SPkFbh-3" value="provinsi_id" style="ellipse;whiteSpace=wrap;html=1;fontFamily=Times New Roman;" parent="1" vertex="1">
                    <mxGeometry x="-344" y="-553" width="60" height="40" as="geometry"/>
                </mxCell>
                <mxCell id="RtNlZTSlQdD1a2SPkFbh-5" value="kabupaten_id" style="ellipse;whiteSpace=wrap;html=1;fontFamily=Times New Roman;" parent="1" vertex="1">
                    <mxGeometry x="-314" y="-519" width="80" height="40" as="geometry"/>
                </mxCell>
                <mxCell id="RtNlZTSlQdD1a2SPkFbh-7" value="alamat" style="ellipse;whiteSpace=wrap;html=1;fontFamily=Times New Roman;" parent="1" vertex="1">
                    <mxGeometry x="-134" y="-669" width="60" height="40" as="geometry"/>
                </mxCell>
                <mxCell id="RtNlZTSlQdD1a2SPkFbh-9" value="nama_pasien" style="ellipse;whiteSpace=wrap;html=1;fontFamily=Times New Roman;" parent="1" vertex="1">
                    <mxGeometry x="-204" y="-739" width="70" height="40" as="geometry"/>
                </mxCell>
                <mxCell id="RtNlZTSlQdD1a2SPkFbh-11" value="no_rm" style="ellipse;whiteSpace=wrap;html=1;fontFamily=Times New Roman;" parent="1" vertex="1">
                    <mxGeometry x="-314" y="-729" width="60" height="40" as="geometry"/>
                </mxCell>
                <mxCell id="RtNlZTSlQdD1a2SPkFbh-13" value="kecamatan_id" style="ellipse;whiteSpace=wrap;html=1;fontFamily=Times New Roman;" parent="1" vertex="1">
                    <mxGeometry x="-174" y="-509" width="80" height="40" as="geometry"/>
                </mxCell>
                <mxCell id="RtNlZTSlQdD1a2SPkFbh-15" value="kelurahan_id" style="ellipse;whiteSpace=wrap;html=1;fontFamily=Times New Roman;" parent="1" vertex="1">
                    <mxGeometry x="-154" y="-549" width="70" height="40" as="geometry"/>
                </mxCell>
                <mxCell id="RtNlZTSlQdD1a2SPkFbh-17" value="tgl_lahir" style="ellipse;whiteSpace=wrap;html=1;fontFamily=Times New Roman;" parent="1" vertex="1">
                    <mxGeometry x="-166.5" y="-709" width="60" height="40" as="geometry"/>
                </mxCell>
                <mxCell id="RtNlZTSlQdD1a2SPkFbh-19" value="&lt;u&gt;id_pasien&lt;/u&gt;" style="ellipse;whiteSpace=wrap;html=1;fontFamily=Times New Roman;" parent="1" vertex="1">
                    <mxGeometry x="-354" y="-699" width="60" height="40" as="geometry"/>
                </mxCell>
                <mxCell id="RtNlZTSlQdD1a2SPkFbh-20" value="&lt;font face=&quot;Times New Roman&quot;&gt;tb_kunjungan&lt;/font&gt;" style="rounded=0;whiteSpace=wrap;html=1;" parent="1" vertex="1">
                    <mxGeometry x="83.5" y="-629" width="120" height="40" as="geometry"/>
                </mxCell>
                <mxCell id="RtNlZTSlQdD1a2SPkFbh-22" value="created_by" style="ellipse;whiteSpace=wrap;html=1;fontFamily=Times New Roman;" parent="1" vertex="1">
                    <mxGeometry x="-14" y="-579" width="60" height="40" as="geometry"/>
                </mxCell>
                <mxCell id="RtNlZTSlQdD1a2SPkFbh-24" value="date_created" style="ellipse;whiteSpace=wrap;html=1;fontFamily=Times New Roman;" parent="1" vertex="1">
                    <mxGeometry x="-4" y="-539" width="80" height="40" as="geometry"/>
                </mxCell>
                <mxCell id="RtNlZTSlQdD1a2SPkFbh-26" value="status" style="ellipse;whiteSpace=wrap;html=1;fontFamily=Times New Roman;" parent="1" vertex="1">
                    <mxGeometry x="236" y="-669" width="60" height="40" as="geometry"/>
                </mxCell>
                <mxCell id="RtNlZTSlQdD1a2SPkFbh-28" value="no_rm" style="ellipse;whiteSpace=wrap;html=1;fontFamily=Times New Roman;" parent="1" vertex="1">
                    <mxGeometry x="166" y="-739" width="70" height="40" as="geometry"/>
                </mxCell>
                <mxCell id="RtNlZTSlQdD1a2SPkFbh-32" value="periksa_tgl" style="ellipse;whiteSpace=wrap;html=1;fontFamily=Times New Roman;" parent="1" vertex="1">
                    <mxGeometry x="216" y="-539" width="80" height="40" as="geometry"/>
                </mxCell>
                <mxCell id="RtNlZTSlQdD1a2SPkFbh-36" value="no_rg" style="ellipse;whiteSpace=wrap;html=1;fontFamily=Times New Roman;" parent="1" vertex="1">
                    <mxGeometry x="203.5" y="-709" width="60" height="40" as="geometry"/>
                </mxCell>
                <mxCell id="RtNlZTSlQdD1a2SPkFbh-38" value="&lt;u&gt;id_kunjungan&lt;/u&gt;" style="ellipse;whiteSpace=wrap;html=1;fontFamily=Times New Roman;" parent="1" vertex="1">
                    <mxGeometry x="-4" y="-699" width="80" height="40" as="geometry"/>
                </mxCell>
                <mxCell id="RtNlZTSlQdD1a2SPkFbh-40" value="update_time" style="ellipse;whiteSpace=wrap;html=1;fontFamily=Times New Roman;" parent="1" vertex="1">
                    <mxGeometry x="30" y="-501" width="80" height="40" as="geometry"/>
                </mxCell>
                <mxCell id="RtNlZTSlQdD1a2SPkFbh-42" value="update_by" style="ellipse;whiteSpace=wrap;html=1;fontFamily=Times New Roman;" parent="1" vertex="1">
                    <mxGeometry x="183.5" y="-499" width="80" height="40" as="geometry"/>
                </mxCell>
                <mxCell id="RtNlZTSlQdD1a2SPkFbh-43" value="&lt;font face=&quot;Times New Roman&quot;&gt;tb_dokter&lt;/font&gt;" style="rounded=0;whiteSpace=wrap;html=1;" parent="1" vertex="1">
                    <mxGeometry x="80" y="-889" width="120" height="40" as="geometry"/>
                </mxCell>
                <mxCell id="RtNlZTSlQdD1a2SPkFbh-45" value="id_dokter" style="ellipse;whiteSpace=wrap;html=1;fontFamily=Times New Roman;" parent="1" vertex="1">
                    <mxGeometry x="50" y="-989" width="60" height="40" as="geometry"/>
                </mxCell>
                <mxCell id="RtNlZTSlQdD1a2SPkFbh-47" value="nama_dokter" style="ellipse;whiteSpace=wrap;html=1;fontFamily=Times New Roman;" parent="1" vertex="1">
                    <mxGeometry x="132.5" y="-989" width="77.5" height="40" as="geometry"/>
                </mxCell>
                <mxCell id="RtNlZTSlQdD1a2SPkFbh-86" value="" style="endArrow=none;html=1;fontFamily=Times New Roman;entryX=0.002;entryY=0.502;entryDx=0;entryDy=0;entryPerimeter=0;exitX=1;exitY=0.5;exitDx=0;exitDy=0;" parent="1" target="RtNlZTSlQdD1a2SPkFbh-88" edge="1">
                    <mxGeometry width="50" height="50" relative="1" as="geometry">
                        <mxPoint x="-166.5" y="-609" as="sourcePoint"/>
                        <mxPoint x="-69" y="-594" as="targetPoint"/>
                    </mxGeometry>
                </mxCell>
                <mxCell id="RtNlZTSlQdD1a2SPkFbh-87" value="1" style="edgeLabel;html=1;align=center;verticalAlign=middle;resizable=0;points=[];fontFamily=Times New Roman;" parent="RtNlZTSlQdD1a2SPkFbh-86" vertex="1" connectable="0">
                    <mxGeometry x="-0.1398" relative="1" as="geometry">
                        <mxPoint as="offset"/>
                    </mxGeometry>
                </mxCell>
                <mxCell id="RtNlZTSlQdD1a2SPkFbh-88" value="&lt;font style=&quot;font-size: 9px;&quot;&gt;memiliki&lt;/font&gt;" style="html=1;whiteSpace=wrap;aspect=fixed;shape=isoRectangle;fontFamily=Times New Roman;" parent="1" vertex="1">
                    <mxGeometry x="-59" y="-624" width="50" height="30" as="geometry"/>
                </mxCell>
                <mxCell id="RtNlZTSlQdD1a2SPkFbh-89" value="" style="endArrow=none;html=1;fontFamily=Times New Roman;exitX=1;exitY=0.5;exitDx=0;exitDy=0;entryX=0;entryY=0.5;entryDx=0;entryDy=0;" parent="1" target="RtNlZTSlQdD1a2SPkFbh-20" edge="1">
                    <mxGeometry width="50" height="50" relative="1" as="geometry">
                        <mxPoint x="-9" y="-609.1599999999999" as="sourcePoint"/>
                        <mxPoint x="86" y="-609" as="targetPoint"/>
                    </mxGeometry>
                </mxCell>
                <mxCell id="RtNlZTSlQdD1a2SPkFbh-90" value="1" style="edgeLabel;html=1;align=center;verticalAlign=middle;resizable=0;points=[];fontFamily=Times New Roman;" parent="RtNlZTSlQdD1a2SPkFbh-89" vertex="1" connectable="0">
                    <mxGeometry x="-0.1398" relative="1" as="geometry">
                        <mxPoint as="offset"/>
                    </mxGeometry>
                </mxCell>
                <mxCell id="RtNlZTSlQdD1a2SPkFbh-91" value="&lt;font style=&quot;font-size: 9px;&quot;&gt;Tugas&lt;/font&gt;" style="html=1;whiteSpace=wrap;aspect=fixed;shape=isoRectangle;fontFamily=Times New Roman;" parent="1" vertex="1">
                    <mxGeometry x="115" y="-799" width="50" height="30" as="geometry"/>
                </mxCell>
                <mxCell id="RtNlZTSlQdD1a2SPkFbh-92" value="" style="endArrow=none;html=1;fontFamily=Times New Roman;exitX=0.499;exitY=1.002;exitDx=0;exitDy=0;exitPerimeter=0;entryX=0.5;entryY=0;entryDx=0;entryDy=0;" parent="1" source="RtNlZTSlQdD1a2SPkFbh-91" target="RtNlZTSlQdD1a2SPkFbh-20" edge="1">
                    <mxGeometry width="50" height="50" relative="1" as="geometry">
                        <mxPoint x="168.5" y="-784.1599999999999" as="sourcePoint"/>
                        <mxPoint x="156" y="-699" as="targetPoint"/>
                    </mxGeometry>
                </mxCell>
                <mxCell id="RtNlZTSlQdD1a2SPkFbh-93" value="N" style="edgeLabel;html=1;align=center;verticalAlign=middle;resizable=0;points=[];fontFamily=Times New Roman;" parent="RtNlZTSlQdD1a2SPkFbh-92" vertex="1" connectable="0">
                    <mxGeometry x="-0.1398" relative="1" as="geometry">
                        <mxPoint as="offset"/>
                    </mxGeometry>
                </mxCell>
                <mxCell id="RtNlZTSlQdD1a2SPkFbh-94" value="" style="endArrow=none;html=1;fontFamily=Times New Roman;entryX=0.505;entryY=0.046;entryDx=0;entryDy=0;entryPerimeter=0;exitX=0.5;exitY=1;exitDx=0;exitDy=0;" parent="1" source="RtNlZTSlQdD1a2SPkFbh-43" target="RtNlZTSlQdD1a2SPkFbh-91" edge="1">
                    <mxGeometry width="50" height="50" relative="1" as="geometry">
                        <mxPoint x="106" y="-839" as="sourcePoint"/>
                        <mxPoint x="118.60000000000014" y="-783.94" as="targetPoint"/>
                    </mxGeometry>
                </mxCell>
                <mxCell id="RtNlZTSlQdD1a2SPkFbh-95" value="1" style="edgeLabel;html=1;align=center;verticalAlign=middle;resizable=0;points=[];fontFamily=Times New Roman;" parent="RtNlZTSlQdD1a2SPkFbh-94" vertex="1" connectable="0">
                    <mxGeometry x="-0.1398" relative="1" as="geometry">
                        <mxPoint as="offset"/>
                    </mxGeometry>
                </mxCell>
                <mxCell id="5v_Bpy8RHmyUlyceS7Ij-1" value="&lt;font face=&quot;Times New Roman&quot;&gt;user&lt;/font&gt;" style="rounded=0;whiteSpace=wrap;html=1;" parent="1" vertex="1">
                    <mxGeometry x="537" y="-860" width="120" height="40" as="geometry"/>
                </mxCell>
                <mxCell id="5v_Bpy8RHmyUlyceS7Ij-3" value="&lt;u&gt;id_user&lt;/u&gt;" style="ellipse;whiteSpace=wrap;html=1;fontFamily=Times New Roman;" parent="1" vertex="1">
                    <mxGeometry x="413" y="-919" width="60" height="30" as="geometry"/>
                </mxCell>
                <mxCell id="5v_Bpy8RHmyUlyceS7Ij-5" value="name" style="ellipse;whiteSpace=wrap;html=1;fontFamily=Times New Roman;" parent="1" vertex="1">
                    <mxGeometry x="420" y="-950" width="60" height="30" as="geometry"/>
                </mxCell>
                <mxCell id="5v_Bpy8RHmyUlyceS7Ij-7" value="email" style="ellipse;whiteSpace=wrap;html=1;fontFamily=Times New Roman;" parent="1" vertex="1">
                    <mxGeometry x="437" y="-980" width="60" height="30" as="geometry"/>
                </mxCell>
                <mxCell id="5v_Bpy8RHmyUlyceS7Ij-9" value="image" style="ellipse;whiteSpace=wrap;html=1;fontFamily=Times New Roman;" parent="1" vertex="1">
                    <mxGeometry x="470" y="-1010" width="60" height="30" as="geometry"/>
                </mxCell>
                <mxCell id="5v_Bpy8RHmyUlyceS7Ij-13" value="role_id" style="ellipse;whiteSpace=wrap;html=1;fontFamily=Times New Roman;" parent="1" vertex="1">
                    <mxGeometry x="625" y="-1000" width="60" height="40" as="geometry"/>
                </mxCell>
                <mxCell id="5v_Bpy8RHmyUlyceS7Ij-15" value="is_active" style="ellipse;whiteSpace=wrap;html=1;fontFamily=Times New Roman;" parent="1" vertex="1">
                    <mxGeometry x="660" y="-965" width="60" height="40" as="geometry"/>
                </mxCell>
                <mxCell id="5v_Bpy8RHmyUlyceS7Ij-17" value="date_created" style="ellipse;whiteSpace=wrap;html=1;fontFamily=Times New Roman;" parent="1" vertex="1">
                    <mxGeometry x="680" y="-925" width="60" height="40" as="geometry"/>
                </mxCell>
                <mxCell id="5v_Bpy8RHmyUlyceS7Ij-23" value="&lt;font face=&quot;Times New Roman&quot;&gt;user_menu&lt;/font&gt;" style="rounded=0;whiteSpace=wrap;html=1;" parent="1" vertex="1">
                    <mxGeometry x="537" y="-1130.06" width="120" height="40" as="geometry"/>
                </mxCell>
                <mxCell id="5v_Bpy8RHmyUlyceS7Ij-53" value="" style="endArrow=none;html=1;fontFamily=Times New Roman;entryX=0.505;entryY=0.046;entryDx=0;entryDy=0;entryPerimeter=0;exitX=0.5;exitY=1;exitDx=0;exitDy=0;" parent="1" source="5v_Bpy8RHmyUlyceS7Ij-23" target="5v_Bpy8RHmyUlyceS7Ij-55" edge="1">
                    <mxGeometry width="50" height="50" relative="1" as="geometry">
                        <mxPoint x="595" y="-1075" as="sourcePoint"/>
                        <mxPoint x="573.6000000000001" y="-1009.94" as="targetPoint"/>
                    </mxGeometry>
                </mxCell>
                <mxCell id="5v_Bpy8RHmyUlyceS7Ij-54" value="N" style="edgeLabel;html=1;align=center;verticalAlign=middle;resizable=0;points=[];fontFamily=Times New Roman;" parent="5v_Bpy8RHmyUlyceS7Ij-53" vertex="1" connectable="0">
                    <mxGeometry x="-0.1398" relative="1" as="geometry">
                        <mxPoint as="offset"/>
                    </mxGeometry>
                </mxCell>
                <mxCell id="5v_Bpy8RHmyUlyceS7Ij-55" value="&lt;font style=&quot;font-size: 9px;&quot;&gt;memiliki&lt;/font&gt;" style="html=1;whiteSpace=wrap;aspect=fixed;shape=isoRectangle;fontFamily=Times New Roman;" parent="1" vertex="1">
                    <mxGeometry x="571" y="-1030" width="50" height="30" as="geometry"/>
                </mxCell>
                <mxCell id="5v_Bpy8RHmyUlyceS7Ij-56" value="" style="endArrow=none;html=1;fontFamily=Times New Roman;exitX=0.499;exitY=1.002;exitDx=0;exitDy=0;exitPerimeter=0;entryX=0.5;entryY=0;entryDx=0;entryDy=0;" parent="1" source="5v_Bpy8RHmyUlyceS7Ij-55" target="5v_Bpy8RHmyUlyceS7Ij-1" edge="1">
                    <mxGeometry width="50" height="50" relative="1" as="geometry">
                        <mxPoint x="593.5" y="-1010.1599999999999" as="sourcePoint"/>
                        <mxPoint x="568.5" y="-855" as="targetPoint"/>
                    </mxGeometry>
                </mxCell>
                <mxCell id="5v_Bpy8RHmyUlyceS7Ij-57" value="1" style="edgeLabel;html=1;align=center;verticalAlign=middle;resizable=0;points=[];fontFamily=Times New Roman;" parent="5v_Bpy8RHmyUlyceS7Ij-56" vertex="1" connectable="0">
                    <mxGeometry x="-0.1398" relative="1" as="geometry">
                        <mxPoint as="offset"/>
                    </mxGeometry>
                </mxCell>
                <mxCell id="17" value="" style="endArrow=none;html=1;exitX=0.612;exitY=0;exitDx=0;exitDy=0;entryX=0;entryY=1;entryDx=0;entryDy=0;exitPerimeter=0;" parent="1" source="5v_Bpy8RHmyUlyceS7Ij-1" target="5v_Bpy8RHmyUlyceS7Ij-13" edge="1">
                    <mxGeometry width="50" height="50" relative="1" as="geometry">
                        <mxPoint x="600" y="-850" as="sourcePoint"/>
                        <mxPoint x="608.7867965644036" y="-989.8578643762689" as="targetPoint"/>
                    </mxGeometry>
                </mxCell>
                <mxCell id="18" value="" style="endArrow=none;html=1;exitX=0.75;exitY=0;exitDx=0;exitDy=0;entryX=0;entryY=1;entryDx=0;entryDy=0;" parent="1" source="5v_Bpy8RHmyUlyceS7Ij-1" target="5v_Bpy8RHmyUlyceS7Ij-15" edge="1">
                    <mxGeometry width="50" height="50" relative="1" as="geometry">
                        <mxPoint x="613.44" y="-850" as="sourcePoint"/>
                        <mxPoint x="643.82755188583" y="-955.8307462620555" as="targetPoint"/>
                    </mxGeometry>
                </mxCell>
                <mxCell id="19" value="" style="endArrow=none;html=1;exitX=1;exitY=0;exitDx=0;exitDy=0;entryX=0;entryY=1;entryDx=0;entryDy=0;" parent="1" source="5v_Bpy8RHmyUlyceS7Ij-1" target="5v_Bpy8RHmyUlyceS7Ij-17" edge="1">
                    <mxGeometry width="50" height="50" relative="1" as="geometry">
                        <mxPoint x="630" y="-850" as="sourcePoint"/>
                        <mxPoint x="678.8275518858354" y="-920.830746262059" as="targetPoint"/>
                    </mxGeometry>
                </mxCell>
                <mxCell id="20" value="" style="endArrow=none;html=1;exitX=0.25;exitY=0;exitDx=0;exitDy=0;entryX=1;entryY=1;entryDx=0;entryDy=0;" parent="1" source="5v_Bpy8RHmyUlyceS7Ij-1" target="5v_Bpy8RHmyUlyceS7Ij-9" edge="1">
                    <mxGeometry width="50" height="50" relative="1" as="geometry">
                        <mxPoint x="498.71000000000004" y="-899.14" as="sourcePoint"/>
                        <mxPoint x="537.4967965644103" y="-929.9978643762737" as="targetPoint"/>
                    </mxGeometry>
                </mxCell>
                <mxCell id="21" value="" style="endArrow=none;html=1;exitX=0.206;exitY=-0.003;exitDx=0;exitDy=0;entryX=1;entryY=1;entryDx=0;entryDy=0;exitPerimeter=0;" parent="1" source="5v_Bpy8RHmyUlyceS7Ij-1" target="5v_Bpy8RHmyUlyceS7Ij-7" edge="1">
                    <mxGeometry width="50" height="50" relative="1" as="geometry">
                        <mxPoint x="570" y="-850" as="sourcePoint"/>
                        <mxPoint x="541.2132034355964" y="-975.8578643762692" as="targetPoint"/>
                    </mxGeometry>
                </mxCell>
                <mxCell id="22" value="" style="endArrow=none;html=1;exitX=0.108;exitY=-0.001;exitDx=0;exitDy=0;entryX=0.94;entryY=0.741;entryDx=0;entryDy=0;exitPerimeter=0;entryPerimeter=0;" parent="1" source="5v_Bpy8RHmyUlyceS7Ij-1" target="5v_Bpy8RHmyUlyceS7Ij-5" edge="1">
                    <mxGeometry width="50" height="50" relative="1" as="geometry">
                        <mxPoint x="564.7199999999998" y="-850.12" as="sourcePoint"/>
                        <mxPoint x="501.21320343559637" y="-945.857864376269" as="targetPoint"/>
                    </mxGeometry>
                </mxCell>
                <mxCell id="23" value="" style="endArrow=none;html=1;exitX=0;exitY=0;exitDx=0;exitDy=0;entryX=1;entryY=0.5;entryDx=0;entryDy=0;" parent="1" source="5v_Bpy8RHmyUlyceS7Ij-1" target="5v_Bpy8RHmyUlyceS7Ij-3" edge="1">
                    <mxGeometry width="50" height="50" relative="1" as="geometry">
                        <mxPoint x="552.96" y="-850.04" as="sourcePoint"/>
                        <mxPoint x="486.4000000000001" y="-910.36" as="targetPoint"/>
                    </mxGeometry>
                </mxCell>
                <mxCell id="40" value="" style="endArrow=none;html=1;entryX=1;entryY=1;entryDx=0;entryDy=0;exitX=0.386;exitY=-0.004;exitDx=0;exitDy=0;exitPerimeter=0;" parent="1" source="RtNlZTSlQdD1a2SPkFbh-1" target="RtNlZTSlQdD1a2SPkFbh-11" edge="1">
                    <mxGeometry width="50" height="50" relative="1" as="geometry">
                        <mxPoint x="-240" y="-630" as="sourcePoint"/>
                        <mxPoint x="-219" y="-680.06" as="targetPoint"/>
                    </mxGeometry>
                </mxCell>
                <mxCell id="41" value="" style="endArrow=none;html=1;entryX=1;entryY=1;entryDx=0;entryDy=0;exitX=0.25;exitY=0;exitDx=0;exitDy=0;" parent="1" source="RtNlZTSlQdD1a2SPkFbh-1" target="RtNlZTSlQdD1a2SPkFbh-19" edge="1">
                    <mxGeometry width="50" height="50" relative="1" as="geometry">
                        <mxPoint x="-272.68000000000006" y="-603.3199999999999" as="sourcePoint"/>
                        <mxPoint x="-295.3151374796623" y="-668.9989956414855" as="targetPoint"/>
                    </mxGeometry>
                </mxCell>
                <mxCell id="42" value="" style="endArrow=none;html=1;entryX=0;entryY=1;entryDx=0;entryDy=0;exitX=0.562;exitY=-0.005;exitDx=0;exitDy=0;exitPerimeter=0;" parent="1" source="RtNlZTSlQdD1a2SPkFbh-1" target="RtNlZTSlQdD1a2SPkFbh-9" edge="1">
                    <mxGeometry width="50" height="50" relative="1" as="geometry">
                        <mxPoint x="-220" y="-630" as="sourcePoint"/>
                        <mxPoint x="-252.78679656440363" y="-684.857864376269" as="targetPoint"/>
                    </mxGeometry>
                </mxCell>
                <mxCell id="43" value="" style="endArrow=none;html=1;entryX=0;entryY=1;entryDx=0;entryDy=0;exitX=0.75;exitY=0;exitDx=0;exitDy=0;" parent="1" source="RtNlZTSlQdD1a2SPkFbh-1" target="RtNlZTSlQdD1a2SPkFbh-17" edge="1">
                    <mxGeometry width="50" height="50" relative="1" as="geometry">
                        <mxPoint x="-209.05999999999995" y="-619.1999999999999" as="sourcePoint"/>
                        <mxPoint x="-183.74873734151492" y="-694.8578643762772" as="targetPoint"/>
                    </mxGeometry>
                </mxCell>
                <mxCell id="44" value="" style="endArrow=none;html=1;entryX=0;entryY=0.5;entryDx=0;entryDy=0;exitX=1;exitY=0;exitDx=0;exitDy=0;" parent="1" source="RtNlZTSlQdD1a2SPkFbh-1" target="RtNlZTSlQdD1a2SPkFbh-7" edge="1">
                    <mxGeometry width="50" height="50" relative="1" as="geometry">
                        <mxPoint x="-186.5" y="-619" as="sourcePoint"/>
                        <mxPoint x="-147.67879441429295" y="-664.8349621774533" as="targetPoint"/>
                    </mxGeometry>
                </mxCell>
                <mxCell id="45" value="" style="endArrow=none;html=1;entryX=0;entryY=0;entryDx=0;entryDy=0;exitX=0.75;exitY=1;exitDx=0;exitDy=0;" parent="1" source="RtNlZTSlQdD1a2SPkFbh-1" target="RtNlZTSlQdD1a2SPkFbh-15" edge="1">
                    <mxGeometry width="50" height="50" relative="1" as="geometry">
                        <mxPoint x="-199" y="-548.9999999999999" as="sourcePoint"/>
                        <mxPoint x="-166.50000000000023" y="-568.9999999999999" as="targetPoint"/>
                    </mxGeometry>
                </mxCell>
                <mxCell id="46" value="" style="endArrow=none;html=1;entryX=0;entryY=0;entryDx=0;entryDy=0;exitX=0.641;exitY=1.002;exitDx=0;exitDy=0;exitPerimeter=0;" parent="1" source="RtNlZTSlQdD1a2SPkFbh-1" target="RtNlZTSlQdD1a2SPkFbh-13" edge="1">
                    <mxGeometry width="50" height="50" relative="1" as="geometry">
                        <mxPoint x="-219.25" y="-578.9999999999999" as="sourcePoint"/>
                        <mxPoint x="-166.49873734151492" y="-533.1421356237228" as="targetPoint"/>
                    </mxGeometry>
                </mxCell>
                <mxCell id="47" value="" style="endArrow=none;html=1;entryX=1;entryY=0;entryDx=0;entryDy=0;exitX=0.409;exitY=1.006;exitDx=0;exitDy=0;exitPerimeter=0;" parent="1" source="RtNlZTSlQdD1a2SPkFbh-1" target="RtNlZTSlQdD1a2SPkFbh-5" edge="1">
                    <mxGeometry width="50" height="50" relative="1" as="geometry">
                        <mxPoint x="-199.5799999999997" y="-578.9200000000001" as="sourcePoint"/>
                        <mxPoint x="-152.2842712474619" y="-493.14213562373106" as="targetPoint"/>
                    </mxGeometry>
                </mxCell>
                <mxCell id="48" value="" style="endArrow=none;html=1;entryX=1;entryY=0;entryDx=0;entryDy=0;exitX=0.154;exitY=0.999;exitDx=0;exitDy=0;exitPerimeter=0;" parent="1" source="RtNlZTSlQdD1a2SPkFbh-1" target="RtNlZTSlQdD1a2SPkFbh-3" edge="1">
                    <mxGeometry width="50" height="50" relative="1" as="geometry">
                        <mxPoint x="-227.41999999999985" y="-578.7599999999999" as="sourcePoint"/>
                        <mxPoint x="-235.71572875255129" y="-503.14213562372447" as="targetPoint"/>
                    </mxGeometry>
                </mxCell>
                <mxCell id="50" value="" style="endArrow=none;html=1;entryX=0;entryY=0.5;entryDx=0;entryDy=0;exitX=0.648;exitY=1.001;exitDx=0;exitDy=0;exitPerimeter=0;" parent="1" source="RtNlZTSlQdD1a2SPkFbh-20" target="RtNlZTSlQdD1a2SPkFbh-32" edge="1">
                    <mxGeometry width="50" height="50" relative="1" as="geometry">
                        <mxPoint x="183.5" y="-579" as="sourcePoint"/>
                        <mxPoint x="241" y="-549" as="targetPoint"/>
                    </mxGeometry>
                </mxCell>
                <mxCell id="51" value="" style="endArrow=none;html=1;entryX=0;entryY=0;entryDx=0;entryDy=0;exitX=0.559;exitY=1.006;exitDx=0;exitDy=0;exitPerimeter=0;" parent="1" source="RtNlZTSlQdD1a2SPkFbh-20" target="RtNlZTSlQdD1a2SPkFbh-42" edge="1">
                    <mxGeometry width="50" height="50" relative="1" as="geometry">
                        <mxPoint x="171.25999999999976" y="-578.96" as="sourcePoint"/>
                        <mxPoint x="225.99999999998863" y="-509" as="targetPoint"/>
                    </mxGeometry>
                </mxCell>
                <mxCell id="52" value="" style="endArrow=none;html=1;entryX=1;entryY=0;entryDx=0;entryDy=0;exitX=0.418;exitY=1.005;exitDx=0;exitDy=0;exitPerimeter=0;" parent="1" source="RtNlZTSlQdD1a2SPkFbh-20" target="RtNlZTSlQdD1a2SPkFbh-40" edge="1">
                    <mxGeometry width="50" height="50" relative="1" as="geometry">
                        <mxPoint x="160.58000000000038" y="-578.76" as="sourcePoint"/>
                        <mxPoint x="205.21572875253833" y="-483.14213562373084" as="targetPoint"/>
                    </mxGeometry>
                </mxCell>
                <mxCell id="53" value="" style="endArrow=none;html=1;entryX=1;entryY=0;entryDx=0;entryDy=0;exitX=0.25;exitY=1;exitDx=0;exitDy=0;" parent="1" source="RtNlZTSlQdD1a2SPkFbh-20" target="RtNlZTSlQdD1a2SPkFbh-24" edge="1">
                    <mxGeometry width="50" height="50" relative="1" as="geometry">
                        <mxPoint x="143.65999999999985" y="-578.8" as="sourcePoint"/>
                        <mxPoint x="108.28427124746167" y="-485.1421356237307" as="targetPoint"/>
                    </mxGeometry>
                </mxCell>
                <mxCell id="54" value="" style="endArrow=none;html=1;entryX=1;entryY=0.5;entryDx=0;entryDy=0;exitX=0;exitY=1;exitDx=0;exitDy=0;" parent="1" source="RtNlZTSlQdD1a2SPkFbh-20" target="RtNlZTSlQdD1a2SPkFbh-22" edge="1">
                    <mxGeometry width="50" height="50" relative="1" as="geometry">
                        <mxPoint x="123.5" y="-579" as="sourcePoint"/>
                        <mxPoint x="74.28427124746213" y="-523.1421356237311" as="targetPoint"/>
                    </mxGeometry>
                </mxCell>
                <mxCell id="55" value="" style="endArrow=none;html=1;entryX=0;entryY=0.5;entryDx=0;entryDy=0;exitX=1;exitY=0;exitDx=0;exitDy=0;" parent="1" source="RtNlZTSlQdD1a2SPkFbh-20" target="RtNlZTSlQdD1a2SPkFbh-26" edge="1">
                    <mxGeometry width="50" height="50" relative="1" as="geometry">
                        <mxPoint x="166" y="-665.06" as="sourcePoint"/>
                        <mxPoint x="223.4999999999818" y="-635.06" as="targetPoint"/>
                    </mxGeometry>
                </mxCell>
                <mxCell id="56" value="" style="endArrow=none;html=1;entryX=0;entryY=1;entryDx=0;entryDy=0;exitX=0.878;exitY=-0.003;exitDx=0;exitDy=0;exitPerimeter=0;" parent="1" source="RtNlZTSlQdD1a2SPkFbh-20" target="RtNlZTSlQdD1a2SPkFbh-36" edge="1">
                    <mxGeometry width="50" height="50" relative="1" as="geometry">
                        <mxPoint x="190" y="-630" as="sourcePoint"/>
                        <mxPoint x="209.99999999997908" y="-669" as="targetPoint"/>
                    </mxGeometry>
                </mxCell>
                <mxCell id="57" value="" style="endArrow=none;html=1;entryX=0;entryY=1;entryDx=0;entryDy=0;exitX=0.75;exitY=0;exitDx=0;exitDy=0;" parent="1" source="RtNlZTSlQdD1a2SPkFbh-20" target="RtNlZTSlQdD1a2SPkFbh-28" edge="1">
                    <mxGeometry width="50" height="50" relative="1" as="geometry">
                        <mxPoint x="198.86000000000013" y="-619.12" as="sourcePoint"/>
                        <mxPoint x="222.31425698748308" y="-664.8395810952607" as="targetPoint"/>
                    </mxGeometry>
                </mxCell>
                <mxCell id="59" value="" style="endArrow=none;html=1;entryX=1;entryY=1;entryDx=0;entryDy=0;exitX=0.25;exitY=0;exitDx=0;exitDy=0;" parent="1" source="RtNlZTSlQdD1a2SPkFbh-20" target="RtNlZTSlQdD1a2SPkFbh-38" edge="1">
                    <mxGeometry width="50" height="50" relative="1" as="geometry">
                        <mxPoint x="140.17999999999984" y="-619.08" as="sourcePoint"/>
                        <mxPoint x="117.16590549917692" y="-684.8264025675155" as="targetPoint"/>
                    </mxGeometry>
                </mxCell>
                <mxCell id="60" value="" style="endArrow=none;html=1;entryX=0.5;entryY=1;entryDx=0;entryDy=0;exitX=0.636;exitY=-0.007;exitDx=0;exitDy=0;exitPerimeter=0;" parent="1" source="RtNlZTSlQdD1a2SPkFbh-43" target="RtNlZTSlQdD1a2SPkFbh-47" edge="1">
                    <mxGeometry width="50" height="50" relative="1" as="geometry">
                        <mxPoint x="160" y="-890" as="sourcePoint"/>
                        <mxPoint x="242.86995959885053" y="-964.790361307029" as="targetPoint"/>
                    </mxGeometry>
                </mxCell>
                <mxCell id="61" value="" style="endArrow=none;html=1;entryX=0.5;entryY=1;entryDx=0;entryDy=0;exitX=0.25;exitY=0;exitDx=0;exitDy=0;" parent="1" source="RtNlZTSlQdD1a2SPkFbh-43" target="RtNlZTSlQdD1a2SPkFbh-45" edge="1">
                    <mxGeometry width="50" height="50" relative="1" as="geometry">
                        <mxPoint x="180" y="-879" as="sourcePoint"/>
                        <mxPoint x="181.25" y="-939" as="targetPoint"/>
                    </mxGeometry>
                </mxCell>
                <mxCell id="62" value="&lt;font face=&quot;Times New Roman&quot;&gt;tb_kunjungan_dtl&lt;/font&gt;" style="rounded=0;whiteSpace=wrap;html=1;" parent="1" vertex="1">
                    <mxGeometry x="547.5" y="-630.5" width="120" height="40" as="geometry"/>
                </mxCell>
                <mxCell id="63" value="pernah_opname" style="ellipse;whiteSpace=wrap;html=1;fontFamily=Times New Roman;" parent="1" vertex="1">
                    <mxGeometry x="350" y="-550.5" width="80" height="40" as="geometry"/>
                </mxCell>
                <mxCell id="64" value="tdk_pernah_opname" style="ellipse;whiteSpace=wrap;html=1;fontFamily=Times New Roman;" parent="1" vertex="1">
                    <mxGeometry x="393" y="-519.5" width="100" height="40" as="geometry"/>
                </mxCell>
                <mxCell id="65" value="no_rm" style="ellipse;whiteSpace=wrap;html=1;fontFamily=Times New Roman;" parent="1" vertex="1">
                    <mxGeometry x="707.5" y="-729" width="40" height="30" as="geometry"/>
                </mxCell>
                <mxCell id="66" value="no_rg" style="ellipse;whiteSpace=wrap;html=1;fontFamily=Times New Roman;" parent="1" vertex="1">
                    <mxGeometry x="658.75" y="-750" width="50" height="30" as="geometry"/>
                </mxCell>
                <mxCell id="67" value="nama_pasien" style="ellipse;whiteSpace=wrap;html=1;fontFamily=Times New Roman;" parent="1" vertex="1">
                    <mxGeometry x="460" y="-790.5" width="70" height="40" as="geometry"/>
                </mxCell>
                <mxCell id="68" value="suami" style="ellipse;whiteSpace=wrap;html=1;fontFamily=Times New Roman;" parent="1" vertex="1">
                    <mxGeometry x="752.5" y="-534.5" width="50" height="30" as="geometry"/>
                </mxCell>
                <mxCell id="69" value="tgl_lahir" style="ellipse;whiteSpace=wrap;html=1;fontFamily=Times New Roman;" parent="1" vertex="1">
                    <mxGeometry x="752.5" y="-565.5" width="60" height="30" as="geometry"/>
                </mxCell>
                <mxCell id="71" value="&lt;u&gt;id_dtl_kunjungan&lt;/u&gt;" style="ellipse;whiteSpace=wrap;html=1;fontFamily=Times New Roman;" parent="1" vertex="1">
                    <mxGeometry x="400" y="-760.5" width="90" height="40" as="geometry"/>
                </mxCell>
                <mxCell id="72" value="keluhan_pasien" style="ellipse;whiteSpace=wrap;html=1;fontFamily=Times New Roman;" parent="1" vertex="1">
                    <mxGeometry x="427" y="-481.5" width="80" height="40" as="geometry"/>
                </mxCell>
                <mxCell id="73" value="alamat" style="ellipse;whiteSpace=wrap;html=1;fontFamily=Times New Roman;" parent="1" vertex="1">
                    <mxGeometry x="732.5" y="-504.5" width="65" height="29" as="geometry"/>
                </mxCell>
                <mxCell id="74" value="rs_opname" style="ellipse;whiteSpace=wrap;html=1;fontFamily=Times New Roman;" parent="1" vertex="1">
                    <mxGeometry x="320" y="-590.5" width="80" height="40" as="geometry"/>
                </mxCell>
                <mxCell id="75" value="pernah_operasi" style="ellipse;whiteSpace=wrap;html=1;fontFamily=Times New Roman;" parent="1" vertex="1">
                    <mxGeometry x="370" y="-724.5" width="80" height="40" as="geometry"/>
                </mxCell>
                <mxCell id="76" value="tdk_pernah_operasi" style="ellipse;whiteSpace=wrap;html=1;fontFamily=Times New Roman;" parent="1" vertex="1">
                    <mxGeometry x="320" y="-690.5" width="110" height="40" as="geometry"/>
                </mxCell>
                <mxCell id="77" value="pasca_operasi" style="ellipse;whiteSpace=wrap;html=1;fontFamily=Times New Roman;" parent="1" vertex="1">
                    <mxGeometry x="640" y="-790.5" width="80" height="40" as="geometry"/>
                </mxCell>
                <mxCell id="78" value="bawa_obat" style="ellipse;whiteSpace=wrap;html=1;fontFamily=Times New Roman;" parent="1" vertex="1">
                    <mxGeometry x="732.5" y="-709" width="80" height="40" as="geometry"/>
                </mxCell>
                <mxCell id="81" value="" style="endArrow=none;html=1;exitX=0.5;exitY=0;exitDx=0;exitDy=0;entryX=0;entryY=1;entryDx=0;entryDy=0;" parent="1" source="62" target="77" edge="1">
                    <mxGeometry width="50" height="50" relative="1" as="geometry">
                        <mxPoint x="600" y="-674.72" as="sourcePoint"/>
                        <mxPoint x="648.9097685722134" y="-745.4963555487018" as="targetPoint"/>
                    </mxGeometry>
                </mxCell>
                <mxCell id="82" value="" style="endArrow=none;html=1;entryX=0;entryY=1;entryDx=0;entryDy=0;exitX=0.597;exitY=-0.006;exitDx=0;exitDy=0;exitPerimeter=0;" parent="1" source="62" target="66" edge="1">
                    <mxGeometry width="50" height="50" relative="1" as="geometry">
                        <mxPoint x="620" y="-631.5" as="sourcePoint"/>
                        <mxPoint x="631.7157287525381" y="-756.3578643762692" as="targetPoint"/>
                    </mxGeometry>
                </mxCell>
                <mxCell id="84" value="" style="endArrow=none;html=1;entryX=0;entryY=1;entryDx=0;entryDy=0;exitX=0.897;exitY=-0.003;exitDx=0;exitDy=0;exitPerimeter=0;" parent="1" source="62" target="65" edge="1">
                    <mxGeometry width="50" height="50" relative="1" as="geometry">
                        <mxPoint x="645.1000000000001" y="-620.62" as="sourcePoint"/>
                        <mxPoint x="718.0681759985382" y="-709.8859784865966" as="targetPoint"/>
                    </mxGeometry>
                </mxCell>
                <mxCell id="85" value="" style="endArrow=none;html=1;entryX=0;entryY=0.5;entryDx=0;entryDy=0;exitX=1;exitY=0;exitDx=0;exitDy=0;" parent="1" source="62" target="78" edge="1">
                    <mxGeometry width="50" height="50" relative="1" as="geometry">
                        <mxPoint x="665.1399999999999" y="-620.6199999999999" as="sourcePoint"/>
                        <mxPoint x="748.3578643762689" y="-683.8933982822017" as="targetPoint"/>
                    </mxGeometry>
                </mxCell>
                <mxCell id="86" value="" style="endArrow=none;html=1;exitX=1;exitY=1;exitDx=0;exitDy=0;entryX=0;entryY=0.5;entryDx=0;entryDy=0;" parent="1" source="62" target="69" edge="1">
                    <mxGeometry width="50" height="50" relative="1" as="geometry">
                        <mxPoint x="677.5" y="-620.5" as="sourcePoint"/>
                        <mxPoint x="750" y="-551.5" as="targetPoint"/>
                    </mxGeometry>
                </mxCell>
                <mxCell id="87" value="" style="endArrow=none;html=1;exitX=0.858;exitY=1;exitDx=0;exitDy=0;entryX=0;entryY=0.5;entryDx=0;entryDy=0;exitPerimeter=0;" parent="1" source="62" target="68" edge="1">
                    <mxGeometry width="50" height="50" relative="1" as="geometry">
                        <mxPoint x="677.5" y="-580.5" as="sourcePoint"/>
                        <mxPoint x="762.5" y="-540.5" as="targetPoint"/>
                    </mxGeometry>
                </mxCell>
                <mxCell id="88" value="" style="endArrow=none;html=1;exitX=0.952;exitY=1.002;exitDx=0;exitDy=0;entryX=0;entryY=0.5;entryDx=0;entryDy=0;exitPerimeter=0;" parent="1" target="73" edge="1">
                    <mxGeometry width="50" height="50" relative="1" as="geometry">
                        <mxPoint x="629.2400000000002" y="-590.4200000000001" as="sourcePoint"/>
                        <mxPoint x="720" y="-519.4999999999999" as="targetPoint"/>
                    </mxGeometry>
                </mxCell>
                <mxCell id="89" value="" style="endArrow=none;html=1;exitX=0.391;exitY=1.004;exitDx=0;exitDy=0;entryX=1;entryY=0.5;entryDx=0;entryDy=0;exitPerimeter=0;" parent="1" source="62" target="72" edge="1">
                    <mxGeometry width="50" height="50" relative="1" as="geometry">
                        <mxPoint x="547.5" y="-575.92" as="sourcePoint"/>
                        <mxPoint x="650.7600000000052" y="-475.5" as="targetPoint"/>
                    </mxGeometry>
                </mxCell>
                <mxCell id="90" value="" style="endArrow=none;html=1;exitX=0.25;exitY=1;exitDx=0;exitDy=0;entryX=1;entryY=0.5;entryDx=0;entryDy=0;" parent="1" source="62" target="64" edge="1">
                    <mxGeometry width="50" height="50" relative="1" as="geometry">
                        <mxPoint x="604.4200000000001" y="-580.3399999999999" as="sourcePoint"/>
                        <mxPoint x="517.0000000000045" y="-451.5" as="targetPoint"/>
                    </mxGeometry>
                </mxCell>
                <mxCell id="91" value="" style="endArrow=none;html=1;exitX=0.101;exitY=0.997;exitDx=0;exitDy=0;entryX=1;entryY=0.5;entryDx=0;entryDy=0;exitPerimeter=0;" parent="1" source="62" target="63" edge="1">
                    <mxGeometry width="50" height="50" relative="1" as="geometry">
                        <mxPoint x="587.5" y="-580.5" as="sourcePoint"/>
                        <mxPoint x="503" y="-489.5" as="targetPoint"/>
                    </mxGeometry>
                </mxCell>
                <mxCell id="92" value="" style="endArrow=none;html=1;exitX=0;exitY=0.75;exitDx=0;exitDy=0;entryX=1;entryY=0.5;entryDx=0;entryDy=0;" parent="1" source="62" target="74" edge="1">
                    <mxGeometry width="50" height="50" relative="1" as="geometry">
                        <mxPoint x="547.4999999999999" y="-625.5" as="sourcePoint"/>
                        <mxPoint x="417.88" y="-565.38" as="targetPoint"/>
                    </mxGeometry>
                </mxCell>
                <mxCell id="93" value="" style="endArrow=none;html=1;entryX=1;entryY=1;entryDx=0;entryDy=0;exitX=0.356;exitY=0.002;exitDx=0;exitDy=0;exitPerimeter=0;" parent="1" source="62" target="67" edge="1">
                    <mxGeometry width="50" height="50" relative="1" as="geometry">
                        <mxPoint x="590" y="-631.5" as="sourcePoint"/>
                        <mxPoint x="561.7157287525381" y="-778.4278643762692" as="targetPoint"/>
                    </mxGeometry>
                </mxCell>
                <mxCell id="94" value="" style="endArrow=none;html=1;entryX=1;entryY=1;entryDx=0;entryDy=0;exitX=0.25;exitY=0;exitDx=0;exitDy=0;" parent="1" source="62" target="71" edge="1">
                    <mxGeometry width="50" height="50" relative="1" as="geometry">
                        <mxPoint x="600.22" y="-620.42" as="sourcePoint"/>
                        <mxPoint x="529.748737341529" y="-746.357864376269" as="targetPoint"/>
                    </mxGeometry>
                </mxCell>
                <mxCell id="95" value="" style="endArrow=none;html=1;entryX=1;entryY=1;entryDx=0;entryDy=0;exitX=0.121;exitY=-0.002;exitDx=0;exitDy=0;exitPerimeter=0;" parent="1" source="62" target="75" edge="1">
                    <mxGeometry width="50" height="50" relative="1" as="geometry">
                        <mxPoint x="560" y="-631.5" as="sourcePoint"/>
                        <mxPoint x="486.8198051533948" y="-716.3578643762692" as="targetPoint"/>
                    </mxGeometry>
                </mxCell>
                <mxCell id="96" value="" style="endArrow=none;html=1;entryX=1;entryY=0.5;entryDx=0;entryDy=0;exitX=0;exitY=0;exitDx=0;exitDy=0;" parent="1" source="62" target="76" edge="1">
                    <mxGeometry width="50" height="50" relative="1" as="geometry">
                        <mxPoint x="550" y="-631.5" as="sourcePoint"/>
                        <mxPoint x="448.2842712474619" y="-680.357864376269" as="targetPoint"/>
                    </mxGeometry>
                </mxCell>
                <mxCell id="97" value="&lt;font style=&quot;font-size: 9px;&quot;&gt;memiliki&lt;/font&gt;" style="html=1;whiteSpace=wrap;aspect=fixed;shape=isoRectangle;fontFamily=Times New Roman;" parent="1" vertex="1">
                    <mxGeometry x="370" y="-625.5" width="50" height="30" as="geometry"/>
                </mxCell>
                <mxCell id="98" value="" style="endArrow=none;html=1;fontFamily=Times New Roman;entryX=0;entryY=0.5;entryDx=0;entryDy=0;exitX=0.979;exitY=0.508;exitDx=0;exitDy=0;exitPerimeter=0;" parent="1" source="97" edge="1">
                    <mxGeometry width="50" height="50" relative="1" as="geometry">
                        <mxPoint x="460" y="-610.5" as="sourcePoint"/>
                        <mxPoint x="547.5" y="-610.5" as="targetPoint"/>
                    </mxGeometry>
                </mxCell>
                <mxCell id="99" value="1" style="edgeLabel;html=1;align=center;verticalAlign=middle;resizable=0;points=[];fontFamily=Times New Roman;" parent="98" vertex="1" connectable="0">
                    <mxGeometry x="-0.1398" relative="1" as="geometry">
                        <mxPoint as="offset"/>
                    </mxGeometry>
                </mxCell>
                <mxCell id="100" value="" style="endArrow=none;html=1;fontFamily=Times New Roman;exitX=1;exitY=0.5;exitDx=0;exitDy=0;entryX=0.008;entryY=0.505;entryDx=0;entryDy=0;entryPerimeter=0;" parent="1" source="RtNlZTSlQdD1a2SPkFbh-20" target="97" edge="1">
                    <mxGeometry width="50" height="50" relative="1" as="geometry">
                        <mxPoint x="301" y="-610.87" as="sourcePoint"/>
                        <mxPoint x="370" y="-611" as="targetPoint"/>
                    </mxGeometry>
                </mxCell>
                <mxCell id="101" value="1" style="edgeLabel;html=1;align=center;verticalAlign=middle;resizable=0;points=[];fontFamily=Times New Roman;" parent="100" vertex="1" connectable="0">
                    <mxGeometry x="-0.1398" relative="1" as="geometry">
                        <mxPoint as="offset"/>
                    </mxGeometry>
                </mxCell>
                <mxCell id="106" value="" style="endArrow=none;html=1;fontFamily=Times New Roman;entryX=0.5;entryY=1;entryDx=0;entryDy=0;exitX=0.508;exitY=0.094;exitDx=0;exitDy=0;exitPerimeter=0;" parent="1" source="137" target="5v_Bpy8RHmyUlyceS7Ij-1" edge="1">
                    <mxGeometry width="50" height="50" relative="1" as="geometry">
                        <mxPoint x="580.2299999999998" y="-798.9399999999998" as="sourcePoint"/>
                        <mxPoint x="621.78" y="-799" as="targetPoint"/>
                    </mxGeometry>
                </mxCell>
                <mxCell id="107" value="N" style="edgeLabel;html=1;align=center;verticalAlign=middle;resizable=0;points=[];fontFamily=Times New Roman;" parent="106" vertex="1" connectable="0">
                    <mxGeometry x="-0.1398" relative="1" as="geometry">
                        <mxPoint as="offset"/>
                    </mxGeometry>
                </mxCell>
                <mxCell id="133" value="role" style="ellipse;whiteSpace=wrap;html=1;fontFamily=Times New Roman;" parent="1" vertex="1">
                    <mxGeometry x="716" y="-885" width="60" height="40" as="geometry"/>
                </mxCell>
                <mxCell id="134" value="" style="endArrow=none;html=1;entryX=0;entryY=0.5;entryDx=0;entryDy=0;exitX=1;exitY=0.25;exitDx=0;exitDy=0;" parent="1" source="5v_Bpy8RHmyUlyceS7Ij-1" target="133" edge="1">
                    <mxGeometry width="50" height="50" relative="1" as="geometry">
                        <mxPoint x="625" y="-795" as="sourcePoint"/>
                        <mxPoint x="656" y="-835" as="targetPoint"/>
                    </mxGeometry>
                </mxCell>
                <mxCell id="135" value="ttd_bidan" style="ellipse;whiteSpace=wrap;html=1;fontFamily=Times New Roman;" parent="1" vertex="1">
                    <mxGeometry x="645" y="-501" width="77.5" height="40" as="geometry"/>
                </mxCell>
                <mxCell id="136" value="" style="endArrow=none;html=1;entryX=0;entryY=0;entryDx=0;entryDy=0;exitX=0.606;exitY=1.005;exitDx=0;exitDy=0;exitPerimeter=0;" parent="1" source="62" target="135" edge="1">
                    <mxGeometry width="50" height="50" relative="1" as="geometry">
                        <mxPoint x="618.75" y="-588.5" as="sourcePoint"/>
                        <mxPoint x="563.75" y="-414.22" as="targetPoint"/>
                    </mxGeometry>
                </mxCell>
                <mxCell id="137" value="&lt;font style=&quot;font-size: 9px;&quot;&gt;dimiliki&lt;/font&gt;" style="html=1;whiteSpace=wrap;aspect=fixed;shape=isoRectangle;fontFamily=Times New Roman;" parent="1" vertex="1">
                    <mxGeometry x="571.25" y="-769" width="50" height="30" as="geometry"/>
                </mxCell>
                <mxCell id="138" value="" style="endArrow=none;html=1;fontFamily=Times New Roman;entryX=0.516;entryY=1;entryDx=0;entryDy=0;entryPerimeter=0;exitX=0.433;exitY=0.018;exitDx=0;exitDy=0;exitPerimeter=0;" parent="1" source="62" target="137" edge="1">
                    <mxGeometry width="50" height="50" relative="1" as="geometry">
                        <mxPoint x="560" y="-719.21" as="sourcePoint"/>
                        <mxPoint x="600.0999999999999" y="-719.1499999999999" as="targetPoint"/>
                    </mxGeometry>
                </mxCell>
                <mxCell id="139" value="1" style="edgeLabel;html=1;align=center;verticalAlign=middle;resizable=0;points=[];fontFamily=Times New Roman;" parent="138" vertex="1" connectable="0">
                    <mxGeometry x="-0.1398" relative="1" as="geometry">
                        <mxPoint as="offset"/>
                    </mxGeometry>
                </mxCell>
                <mxCell id="140" value="password" style="ellipse;whiteSpace=wrap;html=1;fontFamily=Times New Roman;" parent="1" vertex="1">
                    <mxGeometry x="410" y="-889" width="60" height="30" as="geometry"/>
                </mxCell>
                <mxCell id="141" value="" style="endArrow=none;html=1;exitX=0;exitY=0.25;exitDx=0;exitDy=0;entryX=1;entryY=1;entryDx=0;entryDy=0;" parent="1" source="5v_Bpy8RHmyUlyceS7Ij-1" target="140" edge="1">
                    <mxGeometry width="50" height="50" relative="1" as="geometry">
                        <mxPoint x="597" y="-785.5" as="sourcePoint"/>
                        <mxPoint x="410" y="-781.1200000000001" as="targetPoint"/>
                    </mxGeometry>
                </mxCell>
                <mxCell id="142" value="menu" style="ellipse;whiteSpace=wrap;html=1;fontFamily=Times New Roman;" parent="1" vertex="1">
                    <mxGeometry x="680" y="-1079.73" width="60" height="30" as="geometry"/>
                </mxCell>
                <mxCell id="143" value="" style="endArrow=none;html=1;exitX=1;exitY=0.75;exitDx=0;exitDy=0;entryX=0;entryY=0.5;entryDx=0;entryDy=0;" parent="1" source="5v_Bpy8RHmyUlyceS7Ij-23" target="142" edge="1">
                    <mxGeometry width="50" height="50" relative="1" as="geometry">
                        <mxPoint x="675" y="-1020.24" as="sourcePoint"/>
                        <mxPoint x="715.0032034355963" y="-1068.1778643762693" as="targetPoint"/>
                    </mxGeometry>
                </mxCell>
                <mxCell id="149" value="&lt;font face=&quot;Times New Roman&quot;&gt;user_sub_menu&lt;/font&gt;" style="rounded=0;whiteSpace=wrap;html=1;" parent="1" vertex="1">
                    <mxGeometry x="230" y="-1129.55" width="120" height="40" as="geometry"/>
                </mxCell>
                <mxCell id="153" value="url" style="ellipse;whiteSpace=wrap;html=1;fontFamily=Times New Roman;" parent="1" vertex="1">
                    <mxGeometry x="365" y="-1050" width="60" height="30" as="geometry"/>
                </mxCell>
                <mxCell id="162" value="" style="endArrow=none;html=1;entryX=0;entryY=0;entryDx=0;entryDy=0;exitX=1;exitY=1;exitDx=0;exitDy=0;" parent="1" source="149" target="153" edge="1">
                    <mxGeometry width="50" height="50" relative="1" as="geometry">
                        <mxPoint x="352.5" y="-1129.6699999999998" as="sourcePoint"/>
                        <mxPoint x="380" y="-1153.53" as="targetPoint"/>
                    </mxGeometry>
                </mxCell>
                <mxCell id="169" value="&lt;font style=&quot;font-size: 9px;&quot;&gt;memiliki&lt;/font&gt;" style="html=1;whiteSpace=wrap;aspect=fixed;shape=isoRectangle;fontFamily=Times New Roman;" parent="1" vertex="1">
                    <mxGeometry x="415" y="-1124.5499999999997" width="50" height="30" as="geometry"/>
                </mxCell>
                <mxCell id="170" value="" style="endArrow=none;html=1;fontFamily=Times New Roman;exitX=1.001;exitY=0.492;exitDx=0;exitDy=0;exitPerimeter=0;entryX=0;entryY=0.5;entryDx=0;entryDy=0;" parent="1" source="169" target="5v_Bpy8RHmyUlyceS7Ij-23" edge="1">
                    <mxGeometry width="50" height="50" relative="1" as="geometry">
                        <mxPoint x="538" y="-1189.0999999999997" as="sourcePoint"/>
                        <mxPoint x="509.5000000000002" y="-1099.78" as="targetPoint"/>
                    </mxGeometry>
                </mxCell>
                <mxCell id="171" value="1" style="edgeLabel;html=1;align=center;verticalAlign=middle;resizable=0;points=[];fontFamily=Times New Roman;" parent="170" vertex="1" connectable="0">
                    <mxGeometry x="-0.1398" relative="1" as="geometry">
                        <mxPoint as="offset"/>
                    </mxGeometry>
                </mxCell>
                <mxCell id="172" value="title" style="ellipse;whiteSpace=wrap;html=1;fontFamily=Times New Roman;" parent="1" vertex="1">
                    <mxGeometry x="310" y="-1030.45" width="60" height="30.45" as="geometry"/>
                </mxCell>
                <mxCell id="173" value="" style="endArrow=none;html=1;entryX=0.5;entryY=0;entryDx=0;entryDy=0;exitX=0.75;exitY=1;exitDx=0;exitDy=0;" parent="1" source="149" target="172" edge="1">
                    <mxGeometry width="50" height="50" relative="1" as="geometry">
                        <mxPoint x="326" y="-1080" as="sourcePoint"/>
                        <mxPoint x="304.7867965644034" y="-1076.3078643762688" as="targetPoint"/>
                    </mxGeometry>
                </mxCell>
                <mxCell id="174" value="&lt;u&gt;id_sub_menu&lt;/u&gt;" style="ellipse;whiteSpace=wrap;html=1;fontFamily=Times New Roman;" parent="1" vertex="1">
                    <mxGeometry x="180.5" y="-1060" width="75.5" height="30" as="geometry"/>
                </mxCell>
                <mxCell id="175" value="" style="endArrow=none;html=1;exitX=1;exitY=0;exitDx=0;exitDy=0;entryX=0.25;entryY=1;entryDx=0;entryDy=0;" parent="1" source="174" target="149" edge="1">
                    <mxGeometry width="50" height="50" relative="1" as="geometry">
                        <mxPoint x="223.4999999999991" y="-1109.9399999999998" as="sourcePoint"/>
                        <mxPoint x="263.5" y="-1069.82" as="targetPoint"/>
                    </mxGeometry>
                </mxCell>
                <mxCell id="176" value="icon" style="ellipse;whiteSpace=wrap;html=1;fontFamily=Times New Roman;" parent="1" vertex="1">
                    <mxGeometry x="132.5" y="-1079.73" width="60" height="29.55" as="geometry"/>
                </mxCell>
                <mxCell id="177" value="" style="endArrow=none;html=1;exitX=1;exitY=0.5;exitDx=0;exitDy=0;entryX=0;entryY=1;entryDx=0;entryDy=0;" parent="1" source="176" target="149" edge="1">
                    <mxGeometry width="50" height="50" relative="1" as="geometry">
                        <mxPoint x="173.00320343559656" y="-1088.7278643762686" as="sourcePoint"/>
                        <mxPoint x="242.5" y="-1039.61" as="targetPoint"/>
                    </mxGeometry>
                </mxCell>
                <mxCell id="178" value="is_active" style="ellipse;whiteSpace=wrap;html=1;fontFamily=Times New Roman;" parent="1" vertex="1">
                    <mxGeometry x="250" y="-1034.91" width="60" height="30.28" as="geometry"/>
                </mxCell>
                <mxCell id="180" value="" style="endArrow=none;html=1;exitX=0.5;exitY=1;exitDx=0;exitDy=0;entryX=0.5;entryY=0;entryDx=0;entryDy=0;" parent="1" source="149" target="178" edge="1">
                    <mxGeometry width="50" height="50" relative="1" as="geometry">
                        <mxPoint x="270.00150864780784" y="-1074.4842456760962" as="sourcePoint"/>
                        <mxPoint x="327.17000000000024" y="-1020" as="targetPoint"/>
                    </mxGeometry>
                </mxCell>
                <mxCell id="181" value="" style="endArrow=none;html=1;fontFamily=Times New Roman;exitX=1;exitY=0.5;exitDx=0;exitDy=0;entryX=0.014;entryY=0.485;entryDx=0;entryDy=0;entryPerimeter=0;" parent="1" source="149" target="169" edge="1">
                    <mxGeometry width="50" height="50" relative="1" as="geometry">
                        <mxPoint x="413.95" y="-1141.5" as="sourcePoint"/>
                        <mxPoint x="410" y="-1110" as="targetPoint"/>
                    </mxGeometry>
                </mxCell>
                <mxCell id="182" value="N" style="edgeLabel;html=1;align=center;verticalAlign=middle;resizable=0;points=[];fontFamily=Times New Roman;" parent="181" vertex="1" connectable="0">
                    <mxGeometry x="-0.1398" relative="1" as="geometry">
                        <mxPoint x="5" as="offset"/>
                    </mxGeometry>
                </mxCell>
                <mxCell id="183" value="&lt;u&gt;id_menu&lt;/u&gt;" style="ellipse;whiteSpace=wrap;html=1;fontFamily=Times New Roman;" parent="1" vertex="1">
                    <mxGeometry x="487.5" y="-1064.97" width="60" height="30.06" as="geometry"/>
                </mxCell>
                <mxCell id="185" value="" style="endArrow=none;html=1;entryX=1;entryY=0;entryDx=0;entryDy=0;exitX=0.25;exitY=1;exitDx=0;exitDy=0;" parent="1" source="5v_Bpy8RHmyUlyceS7Ij-23" target="183" edge="1">
                    <mxGeometry width="50" height="50" relative="1" as="geometry">
                        <mxPoint x="560" y="-1090" as="sourcePoint"/>
                        <mxPoint x="530" y="-1060.21" as="targetPoint"/>
                    </mxGeometry>
                </mxCell>
                <mxCell id="186" value="Skrining Head" style="swimlane;fontStyle=0;childLayout=stackLayout;horizontal=1;startSize=26;fillColor=none;horizontalStack=0;resizeParent=1;resizeParentMax=0;resizeLast=0;collapsible=1;marginBottom=0;html=1;" parent="1" vertex="1">
                    <mxGeometry x="-230" y="-1820" width="140" height="182" as="geometry"/>
                </mxCell>
                <mxCell id="187" value="no_rm" style="text;strokeColor=none;fillColor=none;align=left;verticalAlign=top;spacingLeft=4;spacingRight=4;overflow=hidden;rotatable=0;points=[[0,0.5],[1,0.5]];portConstraint=eastwest;whiteSpace=wrap;html=1;" parent="186" vertex="1">
                    <mxGeometry y="26" width="140" height="26" as="geometry"/>
                </mxCell>
                <mxCell id="188" value="biodata_id" style="text;strokeColor=none;fillColor=none;align=left;verticalAlign=top;spacingLeft=4;spacingRight=4;overflow=hidden;rotatable=0;points=[[0,0.5],[1,0.5]];portConstraint=eastwest;whiteSpace=wrap;html=1;" parent="186" vertex="1">
                    <mxGeometry y="52" width="140" height="26" as="geometry"/>
                </mxCell>
                <mxCell id="189" value="nama_suami" style="text;strokeColor=none;fillColor=none;align=left;verticalAlign=top;spacingLeft=4;spacingRight=4;overflow=hidden;rotatable=0;points=[[0,0.5],[1,0.5]];portConstraint=eastwest;whiteSpace=wrap;html=1;" parent="186" vertex="1">
                    <mxGeometry y="78" width="140" height="26" as="geometry"/>
                </mxCell>
                <mxCell id="199" value="&lt;span lang=&quot;IN&quot;&gt;Keluhan Utama&lt;/span&gt;" style="text;strokeColor=none;fillColor=none;align=left;verticalAlign=top;spacingLeft=4;spacingRight=4;overflow=hidden;rotatable=0;points=[[0,0.5],[1,0.5]];portConstraint=eastwest;whiteSpace=wrap;html=1;" parent="186" vertex="1">
                    <mxGeometry y="104" width="140" height="26" as="geometry"/>
                </mxCell>
                <mxCell id="200" value="riwayat_penyakit_id" style="text;strokeColor=none;fillColor=none;align=left;verticalAlign=top;spacingLeft=4;spacingRight=4;overflow=hidden;rotatable=0;points=[[0,0.5],[1,0.5]];portConstraint=eastwest;whiteSpace=wrap;html=1;" parent="186" vertex="1">
                    <mxGeometry y="130" width="140" height="26" as="geometry"/>
                </mxCell>
                <mxCell id="206" value="riwayat_alergi_id" style="text;strokeColor=none;fillColor=none;align=left;verticalAlign=top;spacingLeft=4;spacingRight=4;overflow=hidden;rotatable=0;points=[[0,0.5],[1,0.5]];portConstraint=eastwest;whiteSpace=wrap;html=1;" parent="186" vertex="1">
                    <mxGeometry y="156" width="140" height="26" as="geometry"/>
                </mxCell>
                <mxCell id="190" value="Biodata" style="swimlane;fontStyle=0;childLayout=stackLayout;horizontal=1;startSize=26;fillColor=none;horizontalStack=0;resizeParent=1;resizeParentMax=0;resizeLast=0;collapsible=1;marginBottom=0;html=1;" parent="1" vertex="1">
                    <mxGeometry x="-520" y="-1820" width="140" height="104" as="geometry"/>
                </mxCell>
                <mxCell id="191" value="id" style="text;strokeColor=none;fillColor=none;align=left;verticalAlign=top;spacingLeft=4;spacingRight=4;overflow=hidden;rotatable=0;points=[[0,0.5],[1,0.5]];portConstraint=eastwest;whiteSpace=wrap;html=1;" parent="190" vertex="1">
                    <mxGeometry y="26" width="140" height="26" as="geometry"/>
                </mxCell>
                <mxCell id="192" value="nama" style="text;strokeColor=none;fillColor=none;align=left;verticalAlign=top;spacingLeft=4;spacingRight=4;overflow=hidden;rotatable=0;points=[[0,0.5],[1,0.5]];portConstraint=eastwest;whiteSpace=wrap;html=1;" parent="190" vertex="1">
                    <mxGeometry y="52" width="140" height="26" as="geometry"/>
                </mxCell>
                <mxCell id="193" value="alamat" style="text;strokeColor=none;fillColor=none;align=left;verticalAlign=top;spacingLeft=4;spacingRight=4;overflow=hidden;rotatable=0;points=[[0,0.5],[1,0.5]];portConstraint=eastwest;whiteSpace=wrap;html=1;" parent="190" vertex="1">
                    <mxGeometry y="78" width="140" height="26" as="geometry"/>
                </mxCell>
                <mxCell id="194" style="edgeStyle=orthogonalEdgeStyle;html=1;entryX=0;entryY=0.5;entryDx=0;entryDy=0;endArrow=ERmany;endFill=0;startArrow=ERone;startFill=0;" parent="1" source="193" target="188" edge="1">
                    <mxGeometry relative="1" as="geometry"/>
                </mxCell>
                <mxCell id="195" value="Riwayat Penyakit" style="swimlane;fontStyle=0;childLayout=stackLayout;horizontal=1;startSize=26;fillColor=none;horizontalStack=0;resizeParent=1;resizeParentMax=0;resizeLast=0;collapsible=1;marginBottom=0;html=1;" parent="1" vertex="1">
                    <mxGeometry x="20" y="-1820" width="140" height="104" as="geometry"/>
                </mxCell>
                <mxCell id="196" value="id" style="text;strokeColor=none;fillColor=none;align=left;verticalAlign=top;spacingLeft=4;spacingRight=4;overflow=hidden;rotatable=0;points=[[0,0.5],[1,0.5]];portConstraint=eastwest;whiteSpace=wrap;html=1;" parent="195" vertex="1">
                    <mxGeometry y="26" width="140" height="26" as="geometry"/>
                </mxCell>
                <mxCell id="197" value="biodata_id" style="text;strokeColor=none;fillColor=none;align=left;verticalAlign=top;spacingLeft=4;spacingRight=4;overflow=hidden;rotatable=0;points=[[0,0.5],[1,0.5]];portConstraint=eastwest;whiteSpace=wrap;html=1;" parent="195" vertex="1">
                    <mxGeometry y="52" width="140" height="26" as="geometry"/>
                </mxCell>
                <mxCell id="198" value="Pernah_Opname" style="text;strokeColor=none;fillColor=none;align=left;verticalAlign=top;spacingLeft=4;spacingRight=4;overflow=hidden;rotatable=0;points=[[0,0.5],[1,0.5]];portConstraint=eastwest;whiteSpace=wrap;html=1;" parent="195" vertex="1">
                    <mxGeometry y="78" width="140" height="26" as="geometry"/>
                </mxCell>
                <mxCell id="201" style="edgeStyle=orthogonalEdgeStyle;html=1;entryX=0;entryY=0.5;entryDx=0;entryDy=0;startArrow=ERone;startFill=0;endArrow=ERone;endFill=0;" parent="1" source="200" target="196" edge="1">
                    <mxGeometry relative="1" as="geometry"/>
                </mxCell>
                <mxCell id="202" value="Riwayat Alergi" style="swimlane;fontStyle=0;childLayout=stackLayout;horizontal=1;startSize=26;fillColor=none;horizontalStack=0;resizeParent=1;resizeParentMax=0;resizeLast=0;collapsible=1;marginBottom=0;html=1;" parent="1" vertex="1">
                    <mxGeometry x="20" y="-1680" width="140" height="104" as="geometry"/>
                </mxCell>
                <mxCell id="203" value="id" style="text;strokeColor=none;fillColor=none;align=left;verticalAlign=top;spacingLeft=4;spacingRight=4;overflow=hidden;rotatable=0;points=[[0,0.5],[1,0.5]];portConstraint=eastwest;whiteSpace=wrap;html=1;" parent="202" vertex="1">
                    <mxGeometry y="26" width="140" height="26" as="geometry"/>
                </mxCell>
                <mxCell id="204" value="alergi?" style="text;strokeColor=none;fillColor=none;align=left;verticalAlign=top;spacingLeft=4;spacingRight=4;overflow=hidden;rotatable=0;points=[[0,0.5],[1,0.5]];portConstraint=eastwest;whiteSpace=wrap;html=1;" parent="202" vertex="1">
                    <mxGeometry y="52" width="140" height="26" as="geometry"/>
                </mxCell>
                <mxCell id="205" value="alergi apa?" style="text;strokeColor=none;fillColor=none;align=left;verticalAlign=top;spacingLeft=4;spacingRight=4;overflow=hidden;rotatable=0;points=[[0,0.5],[1,0.5]];portConstraint=eastwest;whiteSpace=wrap;html=1;" parent="202" vertex="1">
                    <mxGeometry y="78" width="140" height="26" as="geometry"/>
                </mxCell>
                <mxCell id="207" style="edgeStyle=orthogonalEdgeStyle;html=1;entryX=0;entryY=0.5;entryDx=0;entryDy=0;startArrow=ERone;startFill=0;endArrow=ERone;endFill=0;" parent="1" source="206" target="203" edge="1">
                    <mxGeometry relative="1" as="geometry"/>
                </mxCell>
                <mxCell id="208" value="Table" style="shape=table;startSize=30;container=1;collapsible=1;childLayout=tableLayout;fixedRows=1;rowLines=0;fontStyle=1;align=center;resizeLast=1;" vertex="1" parent="1">
                    <mxGeometry x="-560" y="-2010" width="240" height="150" as="geometry"/>
                </mxCell>
                <mxCell id="209" value="" style="shape=tableRow;horizontal=0;startSize=0;swimlaneHead=0;swimlaneBody=0;fillColor=none;collapsible=0;dropTarget=0;points=[[0,0.5],[1,0.5]];portConstraint=eastwest;top=0;left=0;right=0;bottom=0;" vertex="1" parent="208">
                    <mxGeometry y="30" width="240" height="30" as="geometry"/>
                </mxCell>
                <mxCell id="210" value="PK" style="shape=partialRectangle;connectable=0;fillColor=none;top=0;left=0;bottom=0;right=0;fontStyle=1;overflow=hidden;" vertex="1" parent="209">
                    <mxGeometry width="60" height="30" as="geometry">
                        <mxRectangle width="60" height="30" as="alternateBounds"/>
                    </mxGeometry>
                </mxCell>
                <mxCell id="221" value="id" style="shape=partialRectangle;connectable=0;fillColor=none;top=0;left=0;bottom=0;right=0;fontStyle=1;overflow=hidden;" vertex="1" parent="209">
                    <mxGeometry x="60" width="60" height="30" as="geometry">
                        <mxRectangle width="60" height="30" as="alternateBounds"/>
                    </mxGeometry>
                </mxCell>
                <mxCell id="211" value="int" style="shape=partialRectangle;connectable=0;fillColor=none;top=0;left=0;bottom=0;right=0;align=left;spacingLeft=6;fontStyle=5;overflow=hidden;" vertex="1" parent="209">
                    <mxGeometry x="120" width="120" height="30" as="geometry">
                        <mxRectangle width="120" height="30" as="alternateBounds"/>
                    </mxGeometry>
                </mxCell>
                <mxCell id="212" value="" style="shape=tableRow;horizontal=0;startSize=0;swimlaneHead=0;swimlaneBody=0;fillColor=none;collapsible=0;dropTarget=0;points=[[0,0.5],[1,0.5]];portConstraint=eastwest;top=0;left=0;right=0;bottom=1;" vertex="1" parent="208">
                    <mxGeometry y="60" width="240" height="30" as="geometry"/>
                </mxCell>
                <mxCell id="213" value="" style="shape=partialRectangle;connectable=0;fillColor=none;top=0;left=0;bottom=0;right=0;fontStyle=1;overflow=hidden;" vertex="1" parent="212">
                    <mxGeometry width="60" height="30" as="geometry">
                        <mxRectangle width="60" height="30" as="alternateBounds"/>
                    </mxGeometry>
                </mxCell>
                <mxCell id="222" value="nama" style="shape=partialRectangle;connectable=0;fillColor=none;top=0;left=0;bottom=0;right=0;fontStyle=1;overflow=hidden;" vertex="1" parent="212">
                    <mxGeometry x="60" width="60" height="30" as="geometry">
                        <mxRectangle width="60" height="30" as="alternateBounds"/>
                    </mxGeometry>
                </mxCell>
                <mxCell id="214" value="varchar" style="shape=partialRectangle;connectable=0;fillColor=none;top=0;left=0;bottom=0;right=0;align=left;spacingLeft=6;fontStyle=5;overflow=hidden;" vertex="1" parent="212">
                    <mxGeometry x="120" width="120" height="30" as="geometry">
                        <mxRectangle width="120" height="30" as="alternateBounds"/>
                    </mxGeometry>
                </mxCell>
                <mxCell id="215" value="" style="shape=tableRow;horizontal=0;startSize=0;swimlaneHead=0;swimlaneBody=0;fillColor=none;collapsible=0;dropTarget=0;points=[[0,0.5],[1,0.5]];portConstraint=eastwest;top=0;left=0;right=0;bottom=0;" vertex="1" parent="208">
                    <mxGeometry y="90" width="240" height="30" as="geometry"/>
                </mxCell>
                <mxCell id="216" value="" style="shape=partialRectangle;connectable=0;fillColor=none;top=0;left=0;bottom=0;right=0;editable=1;overflow=hidden;" vertex="1" parent="215">
                    <mxGeometry width="60" height="30" as="geometry">
                        <mxRectangle width="60" height="30" as="alternateBounds"/>
                    </mxGeometry>
                </mxCell>
                <mxCell id="223" style="shape=partialRectangle;connectable=0;fillColor=none;top=0;left=0;bottom=0;right=0;editable=1;overflow=hidden;" vertex="1" parent="215">
                    <mxGeometry x="60" width="60" height="30" as="geometry">
                        <mxRectangle width="60" height="30" as="alternateBounds"/>
                    </mxGeometry>
                </mxCell>
                <mxCell id="217" value="" style="shape=partialRectangle;connectable=0;fillColor=none;top=0;left=0;bottom=0;right=0;align=left;spacingLeft=6;overflow=hidden;" vertex="1" parent="215">
                    <mxGeometry x="120" width="120" height="30" as="geometry">
                        <mxRectangle width="120" height="30" as="alternateBounds"/>
                    </mxGeometry>
                </mxCell>
                <mxCell id="218" value="" style="shape=tableRow;horizontal=0;startSize=0;swimlaneHead=0;swimlaneBody=0;fillColor=none;collapsible=0;dropTarget=0;points=[[0,0.5],[1,0.5]];portConstraint=eastwest;top=0;left=0;right=0;bottom=0;" vertex="1" parent="208">
                    <mxGeometry y="120" width="240" height="30" as="geometry"/>
                </mxCell>
                <mxCell id="219" value="" style="shape=partialRectangle;connectable=0;fillColor=none;top=0;left=0;bottom=0;right=0;editable=1;overflow=hidden;" vertex="1" parent="218">
                    <mxGeometry width="60" height="30" as="geometry">
                        <mxRectangle width="60" height="30" as="alternateBounds"/>
                    </mxGeometry>
                </mxCell>
                <mxCell id="224" value="" style="shape=partialRectangle;connectable=0;fillColor=none;top=0;left=0;bottom=0;right=0;editable=1;overflow=hidden;" vertex="1" parent="218">
                    <mxGeometry x="60" width="60" height="30" as="geometry">
                        <mxRectangle width="60" height="30" as="alternateBounds"/>
                    </mxGeometry>
                </mxCell>
                <mxCell id="220" value="Row 4" style="shape=partialRectangle;connectable=0;fillColor=none;top=0;left=0;bottom=0;right=0;align=left;spacingLeft=6;overflow=hidden;" vertex="1" parent="218">
                    <mxGeometry x="120" width="120" height="30" as="geometry">
                        <mxRectangle width="120" height="30" as="alternateBounds"/>
                    </mxGeometry>
                </mxCell>
            </root>
        </mxGraphModel>
    </diagram>
</mxfile>